<?xml version="1.0" standalone="no"?>
<!DOCTYPE svg PUBLIC "-//W3C//DTD SVG 20010904//EN"
 "http://www.w3.org/TR/2001/REC-SVG-20010904/DTD/svg10.dtd">
<svg version="1.0" xmlns="http://www.w3.org/2000/svg"
 width="720.000000pt" height="720.000000pt" viewBox="0 0 720.000000 720.000000"
 preserveAspectRatio="xMidYMid meet">
<metadata>
Created by potrace 1.14, written by Peter Selinger 2001-2017
</metadata>
<g transform="translate(0.000000,720.000000) scale(0.100000,-0.100000)"
fill="#000000" stroke="none">
<path d="M0 4079 l0 -2961 50 4 c28 1 50 1 50 -2 0 -3 27 -3 60 0 34 3 63 4
65 2 4 -4 207 -5 223 -1 4 1 11 1 16 0 5 -1 82 -2 171 -2 l163 0 2 -152 c0
-84 1 -156 1 -162 0 -5 0 -30 0 -55 0 -25 0 -52 0 -60 0 -8 0 -87 0 -175 0
-217 -5 -197 41 -193 21 2 38 0 38 -5 0 -4 4 -6 8 -3 9 5 61 7 227 6 61 -1
144 -1 185 0 41 0 94 0 118 0 23 0 47 2 52 5 6 4 10 3 10 -2 0 -4 26 -7 57 -6
32 1 85 2 118 2 106 1 128 2 137 7 4 3 8 2 8 -3 0 -4 53 -7 117 -5 189 4 213
3 222 -3 5 -3 12 -1 16 5 4 6 11 8 16 4 9 -5 69 -6 254 -3 28 0 55 0 60 -1 6
-1 13 -2 16 -2 21 2 273 3 404 1 33 0 67 -1 75 0 74 2 112 1 119 -4 5 -3 12
-1 15 3 3 5 22 6 43 3 21 -4 56 -4 78 -1 22 3 51 3 65 0 14 -3 42 -3 63 1 20
3 37 4 37 0 0 -3 26 -5 57 -4 32 1 85 2 118 2 106 1 128 2 137 7 4 3 8 2 8 -3
0 -4 53 -7 117 -6 65 1 145 3 178 4 33 0 65 0 70 -1 6 -1 13 -2 16 -2 13 2
321 4 379 3 24 -1 141 -1 190 0 25 0 50 0 55 -1 6 -1 13 -2 16 -2 13 2 321 4
379 3 24 -1 141 -1 190 0 25 0 50 0 55 -1 6 -1 13 -2 16 -2 13 2 321 4 379 3
24 -1 141 -1 190 0 25 0 50 0 55 -1 6 -1 13 -2 16 -2 13 2 111 2 214 2 61 0
146 0 190 0 44 0 127 0 185 -1 90 -1 105 1 104 15 -1 9 1 16 5 16 6 0 5 39 -2
111 -2 20 0 45 4 55 3 11 3 29 -2 41 -5 12 -4 25 0 28 5 3 5 20 1 39 -4 19 -5
37 -2 40 7 7 7 130 0 142 -3 5 -2 18 2 29 4 11 4 30 -1 42 -5 12 -4 25 0 28 5
3 5 20 1 39 -4 19 -5 37 -2 40 7 8 6 192 -2 204 -3 6 -2 13 3 17 7 3 7 15 1
30 -6 15 -6 27 0 30 6 3 6 15 0 30 -6 15 -6 27 0 30 6 3 6 15 0 30 -6 15 -6
27 0 30 6 3 6 15 0 30 -6 15 -6 27 0 30 6 3 6 15 0 30 -6 15 -6 27 0 30 6 3 6
15 0 30 -6 15 -6 27 0 30 6 3 6 15 0 30 -6 15 -6 27 0 30 6 3 6 15 0 30 -6 15
-6 27 0 30 5 3 6 16 2 28 -8 23 -7 85 2 94 2 3 1 16 -4 29 -5 13 -5 26 -1 29
5 3 5 20 1 39 -4 19 -5 37 -2 40 7 7 6 195 -1 202 -3 3 -2 17 3 30 6 14 6 26
-1 29 -5 4 -6 11 -3 17 3 5 6 83 6 173 0 90 -3 168 -6 173 -3 6 -2 13 3 17 7
3 7 15 1 30 -6 15 -6 27 0 30 5 3 6 16 2 28 -8 23 -7 85 2 94 2 3 1 16 -4 29
-5 13 -5 26 -1 29 5 3 5 20 1 39 -4 19 -5 37 -2 40 7 8 6 192 -2 204 -3 6 -2
13 3 17 7 3 7 15 1 30 -6 15 -6 27 0 30 6 3 6 15 0 30 -6 15 -6 27 0 30 6 3 6
15 0 30 -6 15 -6 27 0 30 6 3 6 15 0 30 -6 15 -6 27 0 30 6 3 6 15 0 30 -6 15
-6 27 0 30 6 3 6 15 0 30 -6 15 -6 27 0 30 6 3 6 15 0 30 -6 15 -6 27 0 30 6
3 6 15 0 30 -6 15 -6 27 0 30 5 3 6 16 2 28 -8 23 -7 85 2 94 2 3 1 16 -4 29
-5 13 -5 26 -1 29 5 3 5 20 1 39 -4 19 -5 37 -2 40 7 7 6 195 -1 202 -3 3 -2
17 3 30 6 14 6 26 -1 29 -5 4 -6 11 -3 17 8 13 8 333 0 346 -3 6 -2 13 3 17 7
3 7 15 1 30 -6 15 -6 27 0 30 5 3 6 15 1 27 -4 11 -4 40 -1 65 4 24 3 46 -1
49 -5 2 -4 16 1 29 6 15 6 27 -1 30 -5 4 -6 11 -3 17 3 5 6 83 6 173 0 90 -3
168 -6 173 -3 6 -2 13 3 17 7 3 7 15 1 30 -6 15 -6 27 0 30 5 3 6 16 2 28 -8
23 -7 85 2 94 2 3 1 16 -4 29 -5 13 -5 26 -1 29 5 3 5 20 1 39 -4 19 -5 37 -2
40 7 8 6 192 -2 204 -3 6 -2 13 3 17 7 3 7 15 1 30 -6 15 -6 27 0 30 6 3 6 15
0 30 -6 15 -6 27 0 30 6 3 6 15 0 30 -6 15 -6 27 0 30 6 3 6 15 0 30 -6 15 -6
27 0 30 6 3 6 15 0 30 -6 15 -6 27 0 30 6 3 6 15 0 30 -6 15 -6 27 0 30 6 3 6
15 0 30 -6 15 -6 27 1 30 5 4 7 10 4 15 -10 16 -12 79 -3 82 5 2 3 11 -5 22
-12 16 -29 18 -203 16 -104 -1 -193 -2 -199 -1 -5 0 -95 1 -200 1 -104 1 -193
4 -198 7 -4 2 -4 9 -1 15 9 14 8 213 -1 227 -3 6 -2 11 4 11 6 0 6 11 1 29 -4
15 -4 34 0 42 5 7 5 20 0 29 -5 9 -5 22 0 30 5 8 6 18 3 24 -8 11 -7 105 0
113 3 3 2 15 -3 28 -5 13 -6 26 -2 29 7 8 5 134 -3 147 -4 5 -2 9 4 9 5 0 6
11 2 28 l-7 27 -2957 3 -2957 2 0 -2961z m285 2801 c50 1 51 1 115 -1 25 0 50
0 55 1 6 1 15 1 20 0 11 -2 567 -2 581 1 5 1 14 0 19 -1 6 -1 30 -1 55 -1 25
1 52 1 60 1 8 0 35 1 60 1 25 0 52 0 60 0 8 0 35 0 60 0 25 0 52 1 60 0 29 -1
585 -2 590 -1 3 1 48 1 100 0 52 -1 101 -1 108 -1 33 1 61 1 105 -1 26 -2 47
1 47 5 0 5 5 5 11 1 9 -5 556 -9 585 -3 5 1 14 0 19 -1 6 -1 30 -1 55 -1 25 1
52 1 60 1 8 0 35 1 60 1 25 0 52 0 60 0 8 0 35 0 60 0 25 0 52 1 60 0 29 -1
585 -2 590 -1 3 1 48 1 100 0 52 -1 101 -1 108 -1 33 1 61 1 105 -1 26 -2 47
1 47 5 0 5 5 5 11 1 9 -5 556 -9 585 -3 5 1 14 0 19 -1 8 -1 56 -1 110 1 6 0
19 -1 30 -1 11 -1 40 -2 65 -1 25 0 52 1 60 0 8 0 42 0 75 0 314 2 496 -2 501
-10 7 -13 9 -253 1 -265 -3 -6 -2 -16 3 -24 4 -7 4 -23 0 -36 -5 -12 -6 -25
-3 -28 8 -8 9 -76 1 -76 -4 0 -3 -13 2 -30 5 -17 5 -30 0 -30 -5 0 -5 -13 0
-30 5 -17 5 -32 0 -35 -6 -3 -5 -16 0 -30 6 -16 5 -27 -3 -33 -9 -8 -275 -16
-404 -13 -10 0 -137 0 -240 0 -326 0 -712 0 -723 0 -46 1 -219 1 -226 0 -5 -1
-13 -1 -19 0 -5 1 -381 1 -835 1 -454 -1 -832 -1 -840 -1 -51 1 -219 1 -226 0
-5 -1 -13 -1 -19 0 -5 1 -165 1 -355 1 -190 -1 -351 -1 -357 -1 -12 0 -207 0
-235 0 -7 0 -96 0 -198 1 -303 1 -280 3 -279 -22 1 -59 0 -458 -2 -480 0 -7 0
-38 0 -68 2 -140 2 -227 0 -252 -1 -7 0 -33 1 -58 1 -25 1 -95 0 -156 0 -61 0
-115 1 -120 1 -5 1 -13 0 -19 -1 -8 -1 -360 0 -420 0 -5 0 -30 0 -55 0 -25 0
-54 0 -65 0 -11 -1 -104 -1 -206 -1 -102 0 -189 1 -195 1 -5 1 -13 0 -19 -1
-5 -2 -64 -1 -130 1 -117 1 -132 -1 -157 0 -7 0 -38 0 -68 1 -75 2 -212 1
-227 -1 -33 -1 -54 -1 -138 0 -70 1 -238 2 -340 0 -5 0 -30 0 -55 0 -25 0 -52
0 -60 0 -8 0 -125 0 -260 0 -135 0 -252 0 -260 0 -8 0 -35 0 -60 0 -25 0 -52
0 -60 1 -41 -1 -374 -2 -392 0 -7 0 -38 0 -68 1 -75 2 -212 1 -227 0 -7 0 -19
-1 -25 0 -7 0 -42 0 -78 0 -36 0 -100 0 -142 l0 -77 -28 1 c-16 1 -32 -2 -38
-5 -5 -3 -15 -2 -22 3 -8 4 -25 4 -40 0 -14 -4 -35 -4 -46 0 -11 4 -29 4 -41
0 -11 -5 -26 -5 -34 0 -7 4 -24 5 -38 1 -14 -4 -45 -4 -69 -1 -24 4 -43 3 -43
-1 0 -5 -6 -6 -12 -4 -24 9 -99 11 -104 4 -2 -5 -12 -5 -20 -2 -9 3 -35 6 -57
7 -48 1 -47 -1 -46 136 0 41 0 125 0 185 -1 122 -1 213 0 223 1 4 0 12 -1 17
-1 6 -1 33 0 60 5 135 4 305 -1 305 -4 0 -3 16 1 34 4 19 5 37 3 40 -3 3 -4
42 -3 88 1 46 1 133 1 193 -1 122 -1 213 0 223 1 4 0 12 -1 17 -1 6 -1 33 0
60 5 135 4 305 -1 305 -4 0 -3 16 1 34 4 19 5 37 3 40 -3 3 -4 42 -3 88 1 46
1 133 1 193 -1 122 -1 213 0 223 1 4 0 12 -1 17 -1 6 -1 33 0 60 5 135 4 305
-1 305 -4 0 -3 16 1 34 4 19 5 37 3 40 -3 3 -4 42 -3 88 1 46 1 133 1 193 -1
122 -1 213 0 223 1 4 0 12 -1 17 -1 6 -1 33 0 60 5 135 4 305 -1 305 -4 0 -3
16 1 34 4 19 5 37 3 40 -3 3 -4 42 -3 88 1 46 1 133 1 193 -1 122 -1 213 0
223 1 4 0 12 -1 17 -1 6 -1 33 0 60 5 135 4 305 -1 305 -4 0 -3 16 1 34 4 19
5 37 3 40 -3 3 -4 42 -3 88 1 46 1 133 1 193 -2 175 -1 217 4 226 3 4 1 10 -5
14 -6 4 -8 10 -5 15 3 5 6 56 6 115 l2 107 24 -5 c13 -2 26 0 29 5 3 4 10 6
15 2 5 -3 30 -5 54 -4z m937 -805 c5 6 46 6 273 5 110 0 205 0 210 1 6 1 14 1
19 0 6 -1 93 -2 195 -1 102 0 195 1 206 1 11 0 40 0 65 0 25 0 50 0 55 0 102
-1 270 -2 340 -2 84 0 105 0 138 1 15 1 152 0 227 -1 30 0 61 0 68 0 6 1 18 1
25 1 15 1 152 0 227 -1 30 0 61 0 68 0 6 1 18 1 25 1 15 1 152 0 227 -1 30 0
61 0 68 0 18 1 351 3 392 2 8 0 35 0 60 0 25 0 50 0 55 0 60 -1 412 -1 420 0
6 1 14 1 19 0 6 -1 93 -2 195 -1 102 0 195 1 206 1 11 0 40 0 65 0 25 0 50 0
55 0 51 -1 412 -2 420 -1 6 1 35 1 65 0 30 -1 75 -3 100 -4 40 -1 45 -4 44
-23 0 -13 3 -23 8 -23 5 0 4 -8 -1 -18 -5 -10 -6 -24 -1 -32 4 -7 6 -18 4 -24
-7 -20 -9 -126 -2 -126 4 0 3 -13 -2 -30 -5 -17 -5 -30 0 -30 5 0 5 -13 0 -30
-5 -17 -5 -30 0 -30 5 0 5 -13 0 -30 -5 -17 -5 -30 0 -30 5 0 5 -13 0 -30 -5
-17 -5 -30 0 -30 5 0 5 -13 0 -30 -5 -16 -6 -30 -2 -30 4 0 6 -46 4 -102 -1
-57 -2 -109 -2 -115 0 -7 0 -20 0 -28 0 -8 0 -22 0 -30 0 -8 0 -22 0 -30 0 -8
0 -22 0 -30 0 -8 0 -22 0 -30 0 -8 0 -22 0 -30 0 -8 0 -22 0 -30 0 -8 0 -22 0
-30 0 -8 0 -22 0 -30 0 -8 0 -22 0 -30 0 -8 0 -22 0 -30 0 -8 0 -22 0 -30 0
-8 0 -22 0 -30 0 -8 0 -22 0 -30 0 -8 0 -22 0 -30 0 -8 0 -22 0 -30 0 -8 0
-22 0 -30 0 -8 0 -22 0 -30 0 -8 0 -22 0 -30 0 -8 0 -23 0 -32 0 -25 -1 -81
-3 -126 -1 -20 1 -37 5 -37 4 0 3 -13 -2 -30 -5 -17 -5 -30 0 -30 5 0 5 -13 0
-30 -5 -17 -5 -30 0 -30 5 0 5 -13 0 -30 -5 -17 -5 -30 0 -30 5 0 5 -13 0 -30
-5 -17 -5 -30 0 -30 5 0 5 -13 0 -30 -5 -16 -6 -30 -2 -30 4 0 6 -46 4 -102
-1 -57 -2 -109 -2 -115 0 -7 0 -20 0 -28 0 -8 0 -22 0 -30 0 -8 0 -22 0 -30 0
-8 0 -22 0 -30 0 -8 0 -22 0 -30 0 -8 0 -22 0 -30 0 -8 0 -22 0 -30 0 -8 0
-22 0 -30 0 -8 0 -22 0 -30 0 -8 0 -22 0 -30 0 -8 0 -22 0 -30 0 -8 0 -22 0
-30 0 -8 0 -22 0 -30 0 -8 0 -22 0 -30 0 -8 0 -22 0 -30 0 -8 0 -22 0 -30 0
-8 0 -22 0 -30 0 -8 0 -22 0 -30 0 -8 0 -22 0 -30 0 -8 0 -23 0 -32 0 -25 -1
-81 -3 -126 -1 -20 1 -37 5 -37 4 0 3 -13 -2 -30 -5 -17 -5 -30 0 -30 5 0 5
-13 0 -30 -5 -17 -5 -30 0 -30 5 0 5 -13 0 -30 -5 -17 -5 -30 0 -30 5 0 5 -13
0 -30 -5 -17 -5 -30 0 -30 5 0 5 -13 0 -30 -5 -16 -6 -30 -2 -30 4 0 6 -46 4
-102 -1 -57 -2 -109 -2 -115 0 -7 0 -20 0 -28 0 -8 0 -22 0 -30 0 -8 0 -22 0
-30 0 -8 0 -22 0 -30 0 -8 0 -22 0 -30 0 -8 0 -22 0 -30 0 -8 0 -22 0 -30 0
-8 0 -22 0 -30 0 -8 0 -22 0 -30 0 -8 0 -22 0 -30 0 -8 0 -22 0 -30 0 -8 0
-22 0 -30 0 -8 0 -22 0 -30 0 -8 0 -22 0 -30 0 -8 0 -22 0 -30 0 -8 0 -22 0
-30 0 -8 0 -22 0 -30 0 -8 0 -22 0 -30 0 -8 0 -22 0 -30 0 -8 0 -23 0 -32 0
-10 0 -40 1 -66 1 -27 -1 -51 -4 -54 -3 -3 -2 -16 3 -29 5 -13 5 -26 1 -29 -5
-3 -5 -21 -1 -40 4 -19 4 -37 0 -40 -4 -3 -4 -19 -1 -37 4 -18 4 -48 0 -66 -4
-17 -3 -34 2 -37 4 -3 4 -16 0 -28 -5 -12 -5 -32 0 -44 4 -12 4 -25 0 -28 -5
-3 -5 -21 -1 -40 4 -20 4 -38 -1 -41 -5 -3 -7 -10 -3 -15 5 -9 6 -31 1 -147
-1 -30 1 -56 5 -58 4 -3 3 -15 -2 -28 -5 -15 -5 -27 2 -34 12 -12 0 -13 -109
-12 -10 0 -40 0 -66 0 -27 0 -53 2 -58 5 -5 4 -9 2 -9 -3 0 -5 -14 -6 -32 -3
-18 4 -48 4 -65 0 -18 -4 -33 -4 -33 0 0 7 -154 5 -174 -2 -7 -3 -19 -2 -26 3
-7 4 -24 4 -39 0 -14 -4 -35 -4 -46 0 -11 4 -29 4 -41 0 -11 -5 -26 -5 -34 0
-7 4 -24 5 -38 1 -14 -4 -45 -4 -69 -1 -24 4 -43 4 -43 0 0 -4 -15 -4 -32 -1
-18 4 -48 4 -65 0 -18 -4 -33 -4 -33 0 0 7 -154 5 -174 -2 -7 -3 -19 -2 -26 3
-7 4 -24 4 -39 0 -14 -4 -35 -4 -46 0 -11 4 -29 4 -41 0 -11 -5 -26 -5 -34 0
-7 4 -24 5 -38 1 -14 -4 -45 -4 -69 -1 -24 4 -43 4 -43 0 0 -4 -15 -4 -32 -1
-18 4 -48 4 -66 0 -17 -4 -32 -4 -32 0 0 3 -35 5 -77 4 -98 -3 -113 -3 -138
-3 -11 0 -42 0 -68 0 -27 0 -53 2 -58 5 -5 4 -9 2 -9 -4 0 -6 -6 -8 -14 -5
-20 8 -106 10 -106 2 0 -3 -8 -4 -17 -2 -31 8 -183 9 -183 2 0 -4 -6 -5 -14
-2 -23 9 -106 10 -106 1 0 -5 -4 -6 -8 -3 -7 4 -57 7 -114 6 -10 0 -47 -1 -83
-1 -36 0 -71 0 -77 0 -61 0 -217 1 -230 1 -42 0 -56 0 -101 0 -27 0 -53 2 -58
5 -5 4 -9 2 -9 -3 0 -5 -14 -6 -32 -3 -18 4 -48 4 -65 0 -18 -4 -33 -4 -33 0
0 3 -35 5 -77 4 -43 -1 -89 -3 -103 -3 -14 0 -36 -1 -50 -1 -14 -1 -33 -1 -42
-1 -10 1 -48 1 -85 1 -38 0 -79 1 -93 1 -112 5 -220 4 -220 -2 0 -4 -6 -5 -14
-2 -20 8 -106 10 -106 2 0 -3 -8 -4 -17 -2 -31 8 -183 9 -183 2 0 -4 -6 -5
-14 -2 -21 8 -106 10 -106 2 0 -4 -6 -5 -13 -3 -19 8 -177 11 -177 4 0 -4 -16
-3 -35 1 -19 4 -37 5 -40 0 -2 -4 -25 -4 -50 0 -25 4 -45 4 -45 -1 0 -4 -16
-3 -34 1 -19 4 -37 5 -40 3 -3 -3 -4 1074 -3 2393 l2 2399 94 2 c52 2 96 5 98
7 3 2 17 0 33 -4 16 -4 30 -7 32 -5z m4780 1 c3 2 36 4 74 4 125 -1 353 0 361
1 4 1 34 1 66 0 57 -1 58 -1 54 -28 -2 -16 0 -43 4 -60 4 -18 4 -33 0 -33 -7
0 -4 -87 4 -107 2 -7 0 -13 -6 -13 -6 0 -8 -4 -4 -9 3 -5 5 -31 5 -58 0 -45 0
-59 0 -100 1 -17 1 -203 1 -230 -1 -7 -1 -24 -1 -38 0 -14 0 -33 0 -42 0 -10
0 -29 1 -43 1 -30 2 -47 0 -80 0 -14 -1 -36 -1 -50 0 -14 -2 -60 -3 -103 -1
-42 1 -77 4 -77 4 0 3 -15 0 -32 -4 -18 -4 -48 0 -65 4 -18 4 -33 0 -33 -5 0
-5 -19 -1 -43 3 -24 3 -55 -1 -69 -4 -14 -3 -31 1 -38 5 -8 5 -23 0 -34 -4
-12 -4 -30 0 -41 4 -11 4 -32 0 -46 -4 -15 -4 -32 0 -39 5 -7 6 -19 3 -26 -7
-20 -9 -174 -2 -174 4 0 3 -15 0 -32 -4 -18 -4 -48 0 -65 4 -19 3 -33 -3 -33
-5 0 -7 -4 -3 -9 3 -5 5 -31 5 -58 0 -45 0 -59 0 -100 1 -17 1 -203 1 -230 -1
-7 -1 -24 -1 -38 0 -14 0 -33 0 -42 0 -10 0 -29 1 -43 1 -30 2 -47 0 -80 0
-14 -1 -36 -1 -50 0 -14 -2 -60 -3 -103 -1 -42 1 -77 4 -77 4 0 4 -15 0 -32
-4 -18 -4 -48 0 -65 3 -19 2 -33 -3 -33 -5 0 -7 -4 -3 -9 3 -5 5 -31 5 -58 0
-45 0 -59 0 -100 1 -17 1 -203 1 -230 -1 -7 -1 -24 -1 -38 0 -14 0 -33 0 -42
0 -10 0 -29 1 -43 1 -30 2 -47 0 -80 0 -14 -1 -36 -1 -50 0 -14 -2 -60 -3
-103 -1 -42 1 -77 4 -77 4 0 3 -15 0 -32 -4 -18 -4 -48 0 -65 4 -19 3 -33 -3
-33 -5 0 -7 -4 -3 -9 3 -5 5 -31 5 -58 0 -45 0 -59 0 -100 1 -17 1 -203 1
-230 -1 -7 -1 -24 -1 -38 0 -14 0 -33 0 -42 0 -10 0 -29 1 -43 1 -30 2 -47 0
-80 0 -14 -1 -36 -1 -50 0 -14 -2 -60 -3 -103 -1 -42 1 -77 4 -77 4 0 3 -15 0
-32 -4 -18 -4 -48 0 -65 4 -19 3 -33 -3 -33 -5 0 -7 -4 -3 -9 3 -5 5 -31 5
-58 0 -45 0 -59 0 -100 1 -17 1 -203 1 -230 -1 -7 -1 -24 -1 -38 0 -37 0 -54
-1 -67 0 -7 0 -24 1 -38 0 -14 0 -55 -1 -92 -1 -36 2 -71 5 -77 4 -6 4 -11 -1
-11 -4 0 -8 -16 -8 -35 0 -19 3 -35 6 -35 4 0 3 -16 -1 -35 -5 -23 -4 -38 4
-43 15 -10 -61 -19 -99 -12 -16 3 -43 3 -60 0 -16 -4 -40 -3 -52 1 -12 5 -25
4 -28 -1 -3 -6 -15 -6 -29 0 -13 5 -27 6 -30 3 -7 -7 -375 -7 -382 0 -3 3 -17
2 -30 -3 -13 -5 -26 -6 -28 -1 -3 4 -25 5 -49 1 -25 -3 -54 -3 -65 1 -12 5
-24 4 -27 -1 -3 -6 -15 -6 -29 0 -13 5 -27 6 -30 3 -7 -7 -375 -7 -382 0 -3 3
-17 2 -30 -3 -13 -5 -26 -6 -28 -1 -3 4 -25 5 -49 1 -25 -3 -54 -3 -65 1 -12
5 -24 4 -27 -1 -3 -6 -15 -6 -29 0 -13 5 -27 6 -30 3 -7 -7 -375 -7 -382 0 -3
3 -17 2 -30 -3 -13 -5 -26 -6 -28 -1 -3 4 -25 5 -49 1 -25 -3 -54 -3 -65 1
-12 5 -24 4 -27 -1 -3 -6 -15 -6 -29 0 -13 5 -27 6 -30 3 -7 -7 -375 -7 -382
0 -3 3 -17 2 -30 -3 -13 -5 -25 -6 -28 -2 -3 5 -30 5 -61 2 -31 -3 -58 -3 -61
2 -3 4 -16 3 -29 -2 -15 -6 -27 -6 -30 0 -3 6 -15 6 -30 0 -15 -6 -27 -6 -30
0 -3 6 -15 6 -30 0 -14 -5 -27 -5 -30 0 -3 5 -18 5 -35 0 -19 -5 -30 -5 -30 1
0 6 -5 7 -11 3 -10 -6 -195 -7 -337 -1 -34 1 -62 -1 -62 -5 0 -4 -13 -3 -29 2
-15 4 -34 4 -41 0 -7 -4 -25 -4 -40 0 -15 4 -33 4 -41 0 -7 -5 -20 -5 -30 0
-9 5 -18 7 -21 5 -9 -9 -73 -11 -95 -4 -12 5 -25 4 -28 -1 -3 -6 -15 -6 -30 0
-15 6 -27 6 -30 0 -3 -6 -15 -6 -30 0 -15 6 -27 6 -30 0 -3 -6 -15 -6 -30 0
-15 6 -27 6 -30 0 -3 -6 -15 -6 -30 0 -15 6 -27 6 -30 0 -3 -6 -15 -6 -30 0
-15 6 -27 6 -30 0 -3 -6 -15 -6 -30 0 -15 6 -27 6 -30 0 -3 -6 -15 -6 -30 0
-15 6 -27 6 -30 0 -3 -6 -15 -6 -30 0 -15 6 -27 6 -30 -1 -4 -5 -11 -7 -16 -3
-14 9 -139 11 -139 2 0 -4 -13 -3 -29 2 -15 4 -34 4 -41 0 -7 -4 -25 -4 -40 0
-15 4 -33 4 -41 0 -7 -5 -20 -5 -30 0 -9 5 -19 7 -21 5 -8 -9 -99 -11 -104 -3
-3 4 -16 3 -29 -2 -15 -6 -27 -6 -30 0 -3 6 -15 6 -30 0 -15 -6 -27 -6 -30 0
-3 6 -15 6 -30 0 -14 -5 -27 -5 -30 0 -3 5 -18 5 -35 0 -19 -5 -30 -5 -30 1 0
6 -5 7 -10 4 -10 -6 -150 -8 -293 -5 -27 1 -51 -1 -54 -4 -3 -2 -16 -1 -29 4
-14 6 -26 6 -29 0 -3 -6 -15 -6 -29 0 -13 5 -27 6 -30 3 -3 -4 -39 -5 -78 -4
-40 1 -81 2 -90 2 -16 0 -17 25 -17 317 1 174 2 319 4 323 2 3 29 2 60 -1 31
-3 58 -3 60 0 2 3 28 4 57 1 29 -3 85 -4 123 -1 39 3 91 2 117 -1 26 -3 52 -2
58 1 6 4 27 4 47 1 20 -3 67 -4 105 -1 38 3 72 2 75 -2 2 -5 9 -6 14 -3 5 4
55 6 112 5 100 -1 290 -2 477 -1 52 0 102 0 110 0 8 -1 31 -1 50 0 19 1 42 1
50 0 8 0 42 0 75 0 33 0 67 0 75 0 8 -1 29 0 45 0 17 1 127 2 245 1 230 -1
394 -1 423 0 40 1 56 1 135 0 46 0 88 2 92 5 5 3 11 2 14 -3 3 -4 29 -6 58 -3
29 3 82 4 118 1 36 -3 91 -3 123 0 31 3 57 3 57 0 0 -3 27 -3 61 0 33 3 62 3
64 0 2 -3 27 -3 57 0 29 3 77 2 106 -1 29 -3 55 -3 57 1 2 3 27 3 57 0 29 -3
95 -3 146 0 50 3 92 3 92 0 0 -3 27 -3 61 0 33 3 62 3 64 0 2 -3 27 -3 57 0
29 3 77 2 106 -1 29 -3 55 -3 57 1 2 3 27 3 57 0 29 -3 95 -3 146 0 50 3 92 3
92 0 0 -3 27 -3 61 0 33 3 62 3 64 0 2 -3 28 -4 57 -1 29 3 77 4 106 1 30 -3
55 -3 57 0 2 3 27 3 57 0 29 -3 95 -3 146 0 50 3 92 2 92 -1 0 -3 13 -4 29 -1
33 5 40 21 30 68 -3 18 -3 38 2 45 4 7 4 20 -1 28 -4 9 -4 23 0 31 5 9 5 22 0
30 -5 8 -5 21 0 30 5 9 5 22 1 28 -4 7 -5 35 -1 62 4 27 3 55 -1 62 -4 6 -4
19 1 28 5 9 5 22 1 29 -5 7 -5 28 -1 47 4 19 4 34 0 34 -5 0 -5 12 -1 28 5 15
5 36 1 46 -4 11 -4 37 0 57 4 21 4 43 -1 50 -4 7 -4 20 1 29 5 9 5 22 1 29 -5
7 -5 28 -1 47 4 19 4 34 0 34 -5 0 -5 12 -1 28 5 15 5 36 1 46 -4 11 -4 34 0
50 3 17 3 45 -1 62 -3 18 -3 38 2 45 4 7 4 20 -1 29 -5 9 -5 22 0 30 5 8 5 21
0 30 -5 9 -5 22 0 30 5 8 6 18 3 24 -8 11 -7 105 0 113 3 3 2 15 -3 28 -5 13
-6 26 -3 29 8 7 6 133 -2 145 -3 5 -1 12 4 16 6 3 7 15 1 29 -4 12 -4 29 0 36
5 8 5 21 0 30 -5 9 -5 22 0 30 5 8 6 18 3 24 -8 11 -7 105 0 113 3 3 2 15 -3
28 -5 13 -6 26 -3 29 4 3 5 36 4 74 -1 37 -2 73 -2 80 1 6 1 19 1 27 0 8 0 22
0 30 0 8 0 22 0 30 0 8 0 22 0 30 0 8 0 22 0 30 0 8 0 21 -1 28 0 11 0 101 1
140 0 9 0 24 0 32 0 8 0 22 0 30 0 8 0 22 0 30 0 8 0 22 0 30 0 8 0 23 0 33 0
9 0 39 -1 65 -1 27 1 51 4 54 3 3 2 15 -3 28 -5 13 -6 26 -3 29 8 7 6 133 -2
145 -3 5 -1 12 4 16 6 3 7 15 1 29 -4 12 -4 29 0 36 5 8 5 21 0 30 -5 9 -5 22
0 30 5 8 6 18 3 24 -8 11 -7 105 0 113 3 3 2 15 -3 28 -5 13 -6 26 -3 29 4 3
5 36 4 74 -1 37 -2 73 -2 80 1 6 1 19 1 27 0 8 0 22 0 30 0 8 0 22 0 30 0 8 0
22 0 30 0 8 0 22 0 30 0 8 0 21 -1 28 0 11 0 101 1 140 0 9 0 24 0 32 0 8 0
22 0 30 0 8 0 22 0 30 0 8 0 22 0 30 0 8 0 23 0 33 0 9 0 39 -1 65 -1 27 1 51
4 54 3 3 2 15 -3 28 -5 13 -6 26 -3 29 8 7 6 133 -2 145 -3 5 -1 12 4 16 6 3
7 15 1 29 -4 12 -4 29 0 36 5 8 5 21 0 30 -5 9 -5 22 0 30 5 8 6 18 3 24 -8
11 -7 105 0 113 3 3 2 15 -3 28 -5 13 -6 26 -3 29 8 7 6 136 -1 144 -3 2 -1
12 4 21 5 10 5 23 0 31 -5 8 -5 21 0 30 5 9 5 22 0 30 -5 8 -5 21 0 30 5 9 5
21 1 28 -4 6 -4 36 -1 66 3 30 3 64 -2 75 -4 11 -3 23 2 26 6 3 6 15 0 30 -8
21 -6 24 18 27 15 2 34 0 43 -4 9 -4 19 -5 21 -2z"/>
</g>
</svg>
